PathFileType	4	(X/Y/Z)	C:\Users\WrightLab\Desktop\Jo\P1_boxCal4.trc
DataRate	CameraRate	NumFrames	NumMarkers	Units	OrigDataRate	OrigDataStartFrame	OrigNumFrames
100.00	100.00	      10	19	mm	100.00	1	      1205
Frame#	Time	Headset_Front			Headset_Back			Headset_Left			Headset_Right			Left_Shoulder			Right_Shoulder			Sternum			C7			Left Elbow			Right Elbow			Left Wrist			Right Wrist			Left ASIS			Right ASIS			S2			Left Knee			Right Knee			Left Ankle			Right Ankle			
		X1	Y1	Z1	X2	Y2	Z2	X3	Y3	Z3	X4	Y4	Z4	X5	Y5	Z5	X6	Y6	Z6	X7	Y7	Z7	X8	Y8	Z8	X9	Y9	Z9	X10	Y10	Z10	X11	Y11	Z11	X12	Y12	Z12	X13	Y13	Z13	X14	Y14	Z14	X15	Y15	Z15	X16	Y16	Z16	X17	Y17	Z17	X18	Y18	Z18	X19	Y19	Z19	

1	0.000							-583.33344	972.28516	-1106.55530	-648.54968	964.82269	-1719.64929	-109.90413	919.17273	-1731.77234	-125.67592	97.69494	-1770.25891													-149.58569	425.00992	-1608.37146	-458.19092	53.12360	-1778.91980	-513.83258	398.83707	-1692.11621										-391.39011	972.91797	-1109.71741	-71.01599	728.70856	-1628.58777	-482.95398	1310.09827	-1309.59753	
2	0.010							-583.37439	972.59204	-1105.76599	-648.67334	965.05505	-1718.73706	-109.95241	919.28510	-1731.07458	-125.34991	97.65974	-1769.95129													-149.52551	425.07516	-1608.41858	-458.20743	53.14837	-1779.01855	-514.37048	399.70621	-1689.08569										-391.31985	973.01959	-1109.37744	-71.84100	728.75262	-1626.80127	-483.49164	1310.89661	-1310.96899	
3	0.020							-583.36304	972.92078	-1105.03333	-648.87402	965.35999	-1717.82520	-109.96550	919.06927	-1729.82947	-125.34991	97.65974	-1769.95129													-149.16695	425.75793	-1608.88147	-458.21909	53.13953	-1779.08154	-514.35760	399.74316	-1689.02734										-391.28595	973.07532	-1109.21497	-71.85211	729.14368	-1625.94019				
4	0.030							-583.36267	973.10999	-1103.99207	-649.03235	965.55908	-1716.88062	-110.10537	919.35950	-1729.35437	-125.34991	97.65974	-1769.95129													-148.66750	425.53723	-1608.83276	-458.27634	53.07259	-1779.38574	-514.33112	399.78488	-1688.89844										-391.27548	973.12531	-1109.17273	-71.75303	729.55493	-1624.77148	-483.98468	1311.16650	-1310.50134	
5	0.040							-583.35901	973.30621	-1102.73633	-649.18652	965.89679	-1716.18665	-110.28672	919.44507	-1728.74402	-124.95436	98.69531	-1770.91638													-148.25641	425.19931	-1608.79504	-458.24094	53.15114	-1779.20679	-514.26770	399.91696	-1688.59753										-389.62894	972.03748	-1114.57007	-71.65399	729.96692	-1623.60156	-484.17322	1311.29443	-1310.23303	
6	0.050							-583.33875	973.42139	-1101.52734	-649.38849	966.21338	-1715.31494	-110.39965	919.60864	-1728.16833	-124.95436	98.69531	-1770.91638													-147.64548	425.55576	-1609.50757	-458.27841	53.10889	-1779.40625	-514.18719	400.07486	-1688.21313										-389.54431	972.18323	-1114.16516	-71.63033	730.23859	-1622.92932	-484.31760	1311.42102	-1309.92468	
7	0.060							-583.25940	973.64856	-1100.57275	-649.54535	966.51520	-1714.44812	-110.60764	919.68713	-1727.72766	-124.81329	98.58537	-1770.99158													-147.40849	425.58786	-1609.42126	-458.32925	53.02435	-1779.67029	-514.13263	400.17920	-1687.95215										-389.45297	972.38763	-1113.73962	-72.25081	730.23193	-1621.65076	-485.06238	1311.58923	-1309.06934	
8	0.070							-583.12341	973.83276	-1099.57434	-649.66522	966.75867	-1713.67822	-110.79712	919.78821	-1727.22351	-124.95436	98.69531	-1770.91638													-147.20380	425.55521	-1609.34338	-458.36499	52.98245	-1779.86011	-514.54346	401.26642	-1685.68835										-389.30972	972.65082	-1113.05835	-72.34678	730.65552	-1620.91992	-485.19290	1311.70886	-1308.77185	
9	0.080							-582.97992	974.00793	-1098.46887	-649.84967	967.04108	-1712.77100	-111.00064	919.90900	-1726.71631																-146.55148	425.86081	-1610.08215	-459.17358	54.44282	-1776.36060	-514.37408	401.55536	-1684.87024										-389.11850	972.99554	-1112.14709	-72.97462	730.86951	-1620.27466	-485.47650	1312.38037	-1309.75806	
10	0.090							-582.86127	974.21198	-1097.39429	-649.95026	967.27563	-1711.83374	-111.10239	920.04474	-1726.24963	-124.67224	98.47543	-1771.06702													-146.07141	426.47586	-1610.44299	-459.20428	54.40157	-1776.52209	-514.21832	401.83667	-1684.12146				-670.83270	719.54486	-1629.82324				-388.49048	972.15613	-1113.32666	-73.76943	730.69073	-1618.41113	-485.55750	1312.53003	-1309.30090	
